<svg
    viewBox="0 0 100 100"
    fill="none"
    xmlns="http://www.w3.org/2000/svg"
    preserveAspectRatio="xMinYMin meet">
        <g clip-path="url(#clip0)">
        <rect width="1440" height="900" fill="#D7E6E3"/>
        <path d="M0 253.335C0 253.335 205.411 -30.8097 401.311 174.246C597.212 379.302 838.518 235.583 943.862 86.2211C1110.52 -150.078 1440 174.246 1440 174.246V900H11.6032L0 253.335Z" fill="#D7E6E3"/>
        <path d="M-273 533.791C-273 533.791 -261.374 234.444 -36 411.79C189.374 589.137 384.868 61.0001 580.5 61C691 61 864.5 364.5 864.5 364.5L943.5 838.952H-273V533.791Z" fill="#ECD7CB"/>
        <path d="M-199 468.504C-199 468.504 178.802 338.144 392.901 515.491C607 692.838 868.5 271.404 1028.5 154.904C1229.9 8.26189 1385.4 399.297 1385.4 399.297V1075.34H-199V468.504Z" fill="#EECDCA"/>
        <path d="M-1147 355.334C-1147 355.334 -749.199 195.109 -523.766 413.086C-298.334 631.063 180.143 81.5801 346.5 208.193C566.697 375.783 944 413.086 944 413.086L732.489 1101.19H-1147V355.334Z" fill="#E4826B"/>
        <path d="M-720 388.081C-720 388.081 -627.599 242.653 -413.5 420C-199.401 597.347 453.266 362.34 621.229 278.611C882.162 148.539 1174.5 461.916 1174.5 461.916L1065 994.915H-720V388.081Z" fill="#CB4635"/>
        <path d="M-239 470.888C-239 470.888 17.6929 219.772 262.5 400.992C507.307 582.213 808.857 455.2 940.5 323.199C1148.77 114.366 1560.5 400.992 1560.5 400.992V1042.39H-224.5L-239 470.888Z" fill="#AE352A"/>
        </g>
        <defs>
        <clipPath id="clip0">
        <rect 
            width="1440"
            height="900"
            fill="white"/>
        </clipPath>
        </defs>
</svg>
